<?xml version="1.0" standalone="no"?>
<!DOCTYPE svg PUBLIC "-//W3C//DTD SVG 20010904//EN"
 "http://www.w3.org/TR/2001/REC-SVG-20010904/DTD/svg10.dtd">
<svg version="1.0" xmlns="http://www.w3.org/2000/svg"
 width="700.000000pt" height="700.000000pt" viewBox="0 0 700.000000 700.000000"
 preserveAspectRatio="xMidYMid meet">
<metadata>
Created by potrace 1.11, written by Peter Selinger 2001-2013
</metadata>
<g transform="translate(0.000000,700.000000) scale(0.100000,-0.100000)"
fill="#000000" stroke="none">
<path d="M3206 5413 c-191 -191 -345 -353 -344 -361 2 -7 287 -298 633 -645
l631 -632 -1 -378 -1 -378 -632 -632 c-348 -348 -632 -638 -632 -645 0 -21
686 -702 707 -702 11 0 339 322 796 778 l777 778 0 802 0 802 -774 774 c-425
426 -782 777 -793 780 -16 5 -87 -62 -367 -341z"/>
<path d="M2207 4402 c-191 -191 -347 -354 -347 -362 0 -8 140 -155 310 -325
171 -170 310 -313 310 -316 0 -4 -139 -146 -310 -316 -170 -171 -310 -317
-310 -325 0 -20 691 -709 707 -706 22 5 1343 1331 1343 1348 0 16 -1329 1350
-1345 1350 -6 0 -166 -156 -358 -348z"/>
</g>
</svg>
