<?xml version="1.0" standalone="no"?>
<!DOCTYPE svg PUBLIC "-//W3C//DTD SVG 20010904//EN"
 "http://www.w3.org/TR/2001/REC-SVG-20010904/DTD/svg10.dtd">
<svg version="1.0" xmlns="http://www.w3.org/2000/svg"
 width="513.000000pt" height="513.000000pt" viewBox="0 0 513.000000 513.000000"
 preserveAspectRatio="xMidYMid meet">
<metadata>
Created by potrace 1.11, written by Peter Selinger 2001-2013
</metadata>
<g transform="translate(0.000000,513.000000) scale(0.100000,-0.100000)"
fill="#000000" stroke="none">
<path d="M1928 2933 c-533 -533 -968 -976 -968 -985 0 -22 447 -468 468 -468
9 0 191 174 403 386 281 281 391 385 403 381 14 -6 16 -50 14 -437 -1 -236 2
-433 6 -438 9 -9 1713 -10 1728 -1 11 7 15 649 5 666 -4 6 -209 10 -522 10
-313 0 -520 4 -525 9 -6 6 -11 364 -12 924 -3 804 -5 915 -18 918 -9 1 -421
-403 -982 -965z"/>
</g>
</svg>
