<?xml version="1.0" standalone="no"?>
<!DOCTYPE svg PUBLIC "-//W3C//DTD SVG 20010904//EN"
 "http://www.w3.org/TR/2001/REC-SVG-20010904/DTD/svg10.dtd">
<svg version="1.0" xmlns="http://www.w3.org/2000/svg"
 width="512.000000pt" height="512.000000pt" viewBox="0 0 512.000000 512.000000"
 preserveAspectRatio="xMidYMid meet">
<metadata>
Created by potrace 1.11, written by Peter Selinger 2001-2013
</metadata>
<g transform="translate(0.000000,512.000000) scale(0.100000,-0.100000)"
fill="#000000" stroke="none">
<path d="M2352 3957 c-138 -138 -252 -258 -252 -266 0 -7 208 -221 463 -476
l462 -462 -2 -259 c-1 -143 -2 -266 -2 -275 -1 -9 -208 -224 -461 -477 -253
-252 -460 -466 -460 -473 0 -16 500 -519 515 -519 5 0 267 257 582 572 l571
571 1 586 0 586 -572 573 c-315 314 -576 572 -582 572 -6 0 -124 -114 -263
-253z"/>
<path d="M1623 3218 c-139 -139 -253 -259 -253 -268 0 -8 102 -117 227 -242
l228 -228 -228 -228 c-125 -125 -227 -234 -227 -242 0 -15 498 -520 513 -520
13 0 987 976 987 990 0 13 -973 990 -986 990 -4 0 -122 -114 -261 -252z"/>
</g>
</svg>
